<svg xmlns="http://www.w3.org/2000/svg" version="1.0" width="1563.000000pt" height="1563.000000pt" viewBox="0 0 1563.000000 1563.000000" preserveAspectRatio="xMidYMid meet">

<g transform="translate(0.000000,1563.000000) scale(0.100000,-0.100000)" fill="#e4b8bf" stroke="none">
<path d="M7139 15226 c-2 -3 -49 -10 -104 -16 -328 -35 -669 -94 -865 -150 -19 -6 -53 -14 -75 -19 -22 -5 -65 -17 -95 -26 -30 -9 -71 -20 -90 -25 -19 -4 -60 -16 -90 -25 -30 -9 -77 -22 -105 -30 -123 -31 -428 -141 -715 -257 -266 -108 -655 -288 -761 -354 -20 -12 -71 -41 -115 -65 -43 -23 -108 -61 -144 -84 -36 -23 -114 -73 -175 -110 -60 -38 -139 -89 -175 -114 -36 -24 -85 -58 -110 -75 -25 -16 -47 -33 -50 -36 -6 -8 -101 -80 -170 -130 -41 -30 -112 -86 -272 -215 -144 -117 -243 -208 -456 -419 -134 -133 -276 -279 -315 -326 -40 -47 -89 -103 -109 -125 -20 -22 -63 -74 -95 -115 -32 -41 -70 -91 -86 -110 -95 -121 -272 -360 -294 -399 -10 -17 -52 -84 -94 -149 -42 -64 -87 -136 -100 -158 -13 -23 -37 -63 -53 -90 -102 -173 -136 -236 -243 -450 -65 -131 -135 -275 -155 -319 -20 -44 -51 -111 -69 -150 -41 -92 -112 -284 -171 -465 -14 -41 -45 -136 -70 -210 -48 -140 -63 -190 -92 -300 -37 -139 -45 -168 -61 -245 -9 -44 -20 -96 -25 -115 -9 -35 -54 -258 -72 -355 -67 -376 -114 -1022 -103 -1440 7 -267 28 -568 51 -720 8 -55 20 -134 25 -175 10 -79 21 -140 45 -252 28 -135 46 -213 54 -238 4 -14 15 -61 24 -105 10 -44 24 -105 32 -135 8 -30 23 -93 34 -140 31 -130 45 -175 90 -300 23 -63 46 -128 52 -145 5 -16 16 -43 23 -60 7 -16 32 -86 55 -155 22 -69 45 -134 50 -145 40 -90 50 -115 50 -121 0 -4 33 -77 74 -163 40 -86 85 -181 99 -211 14 -30 39 -77 55 -105 16 -27 57 -106 93 -175 106 -209 331 -573 535 -866 51 -73 176 -233 220 -283 23 -25 58 -68 79 -96 62 -82 183 -222 290 -334 125 -130 378 -379 425 -417 19 -16 64 -56 100 -91 36 -34 85 -76 110 -94 25 -18 64 -50 87 -72 23 -22 55 -49 72 -61 16 -11 51 -38 78 -59 26 -21 90 -68 142 -105 51 -37 106 -76 120 -87 90 -66 194 -134 416 -271 33 -20 77 -48 99 -63 82 -56 572 -308 706 -364 47 -19 119 -51 160 -70 142 -66 649 -245 840 -297 41 -11 91 -25 110 -31 57 -17 236 -62 318 -79 23 -5 50 -13 60 -18 16 -8 48 -15 252 -57 41 -8 140 -24 220 -35 80 -12 192 -28 250 -36 58 -9 169 -18 248 -21 163 -6 184 1 202 64 8 27 10 263 8 778 -3 689 -4 743 -21 768 -12 19 -26 27 -46 27 -16 0 -48 7 -71 15 -23 8 -56 15 -72 15 -16 0 -37 4 -46 9 -10 5 -49 14 -87 20 -39 6 -113 18 -165 26 -52 9 -124 20 -160 25 -36 4 -90 13 -120 20 -30 6 -89 18 -130 26 -41 8 -84 19 -95 23 -11 5 -33 14 -50 21 -16 7 -43 16 -60 20 -16 5 -55 18 -85 29 -30 11 -86 29 -125 40 -78 21 -126 37 -170 57 -16 7 -57 20 -90 30 -33 9 -80 26 -105 37 -25 11 -61 25 -80 32 -63 22 -397 183 -460 221 -36 22 -152 85 -230 125 -25 13 -86 51 -135 84 -50 34 -99 64 -110 69 -19 7 -67 40 -263 180 -106 75 -150 110 -252 201 -37 33 -105 92 -151 132 -114 97 -616 604 -666 673 -22 30 -50 64 -63 75 -12 11 -38 43 -56 70 -19 28 -54 75 -79 105 -62 75 -305 443 -334 505 -13 28 -34 64 -47 82 -26 35 -238 453 -249 493 -4 14 -25 62 -46 108 -22 45 -39 88 -39 95 0 7 -4 17 -9 23 -9 9 -139 401 -167 504 -9 30 -20 70 -25 87 -6 18 -14 54 -19 80 -5 27 -18 89 -30 138 -12 50 -28 119 -35 155 -8 36 -21 99 -29 140 -34 162 -57 333 -67 500 -13 213 -5 1198 10 1285 6 33 15 96 21 140 5 44 16 112 24 150 37 182 67 315 82 365 8 30 20 73 25 95 5 22 20 72 33 110 13 39 32 104 41 145 10 41 36 118 57 170 21 52 38 100 38 106 0 12 20 57 86 201 13 28 24 57 24 64 0 6 11 32 24 58 13 25 48 93 77 151 106 213 180 355 193 370 8 8 27 42 44 75 26 53 103 169 277 424 28 40 75 103 106 139 30 37 64 81 74 97 11 17 41 53 66 80 26 28 65 73 86 100 54 68 527 542 583 585 25 19 68 55 95 81 28 26 70 62 95 80 25 18 68 51 95 74 28 24 84 65 125 93 41 28 127 87 190 131 63 45 133 90 154 102 22 12 45 27 52 34 7 7 52 33 101 59 48 26 104 56 123 68 44 26 322 173 465 246 83 42 100 46 116 26 11 -14 14 -80 14 -348 0 -182 6 -405 14 -496 9 -112 11 -232 6 -375 -9 -275 -22 -257 181 -267 82 -4 264 -7 404 -7 140 0 400 -5 577 -11 342 -13 502 -5 531 24 8 8 17 31 21 53 10 52 5 3463 -4 3486 -4 10 -19 23 -32 28 -24 9 -226 13 -234 5z" fill="#e4b8bf"/>
<path d="M8306 15118 c-10 -17 -16 -72 -20 -203 -3 -99 -6 -2601 -6 -5560 1 -5302 1 -5380 20 -5399 12 -13 39 -22 72 -25 29 -3 387 -4 794 -1 709 5 743 6 763 24 11 10 23 33 26 50 8 43 14 1111 23 3864 6 2093 9 2374 22 2382 8 5 20 10 27 10 17 0 98 -78 141 -136 62 -84 115 -153 153 -197 19 -23 46 -58 59 -77 13 -19 40 -54 59 -77 41 -48 101 -124 151 -193 19 -26 53 -68 75 -92 22 -25 61 -72 87 -104 25 -32 75 -94 110 -137 34 -43 71 -90 80 -104 9 -14 43 -56 75 -92 32 -36 90 -106 128 -155 39 -48 97 -120 130 -160 34 -39 70 -83 80 -97 55 -73 208 -237 226 -242 26 -7 93 50 145 122 22 30 57 75 79 101 22 25 56 68 75 94 58 79 113 152 142 188 15 18 47 57 70 86 24 29 69 86 101 125 32 40 75 95 96 122 21 28 49 61 61 75 12 14 40 48 61 75 105 137 134 173 169 211 21 23 45 55 53 70 8 16 25 38 37 49 13 11 36 38 52 60 16 22 46 58 67 80 21 22 58 67 83 100 60 77 136 158 168 178 55 33 92 -11 166 -200 61 -155 58 -147 86 -233 14 -41 52 -158 85 -260 34 -102 71 -225 83 -275 48 -193 82 -364 90 -448 5 -49 14 -121 20 -160 6 -40 15 -126 20 -192 6 -66 14 -154 20 -195 12 -95 12 -670 0 -810 -18 -217 -56 -530 -76 -630 -8 -41 -19 -95 -24 -120 -38 -197 -67 -310 -135 -525 -7 -22 -27 -87 -45 -145 -18 -58 -36 -114 -40 -125 -5 -11 -22 -60 -40 -110 -18 -49 -46 -119 -62 -155 -17 -36 -45 -99 -63 -140 -62 -144 -90 -205 -121 -265 -168 -323 -175 -334 -411 -676 -228 -330 -404 -525 -935 -1036 -47 -46 -89 -83 -94 -83 -5 0 -34 -23 -64 -50 -90 -82 -229 -192 -330 -262 -52 -36 -124 -86 -160 -112 -90 -64 -228 -156 -235 -156 -3 0 -22 -10 -43 -23 -81 -51 -445 -239 -547 -283 -28 -12 -75 -33 -105 -47 -30 -13 -66 -28 -80 -32 -14 -4 -30 -11 -36 -16 -16 -13 -137 -57 -229 -84 -44 -13 -109 -33 -145 -46 -187 -64 -237 -82 -255 -89 -49 -20 -200 -56 -295 -69 -64 -9 -141 -24 -295 -57 -153 -32 -221 -45 -285 -54 -85 -12 -142 -34 -165 -64 -20 -27 -20 -39 -20 -788 l1 -760 33 -30 34 -30 121 5 c118 5 212 15 346 37 36 6 113 17 172 25 91 13 152 25 368 72 14 3 86 21 160 40 74 19 160 40 190 47 30 8 78 21 105 29 28 8 88 26 135 40 103 30 238 74 265 86 11 5 79 28 150 51 129 42 377 137 478 184 29 13 81 37 117 52 85 37 511 252 530 268 8 6 35 22 60 35 25 13 52 29 60 36 8 7 67 43 130 80 63 38 162 101 220 140 58 40 128 87 155 106 56 37 163 117 183 136 8 7 23 18 35 25 34 18 161 114 177 133 8 10 40 36 70 58 30 22 80 64 110 93 30 29 75 67 99 84 59 43 632 617 706 708 125 152 274 341 305 386 8 12 44 62 80 111 36 49 83 118 105 152 22 34 74 113 116 175 91 134 149 226 149 235 0 3 14 29 32 57 65 104 348 663 398 786 12 30 29 71 37 90 8 19 18 44 22 55 5 11 27 67 50 125 56 138 115 300 156 430 29 93 43 137 75 255 13 46 37 142 55 220 9 39 23 95 31 125 30 110 34 126 45 180 6 30 17 84 25 120 29 133 58 318 79 500 44 382 67 972 46 1190 -11 116 -16 173 -41 513 -13 174 -57 492 -79 572 -5 17 -16 64 -25 105 -26 123 -104 437 -137 555 -17 61 -36 133 -44 160 -17 61 -25 87 -65 195 -37 100 -86 239 -104 295 -12 36 -34 92 -71 180 -7 17 -28 64 -48 105 -19 41 -38 86 -42 100 -16 51 -197 422 -273 560 -106 194 -384 626 -487 760 -19 25 -57 76 -83 113 -26 38 -61 89 -79 114 -17 25 -43 57 -57 72 -14 15 -26 32 -26 37 0 6 -28 39 -61 75 -34 35 -72 80 -84 99 -13 19 -59 72 -104 117 -45 45 -81 86 -81 90 0 5 -14 25 -31 46 -41 49 -112 91 -140 82 -25 -8 -129 -113 -129 -130 0 -6 -12 -22 -26 -36 -14 -13 -47 -51 -72 -84 -26 -33 -57 -71 -70 -85 -13 -14 -35 -41 -48 -60 -13 -19 -51 -69 -84 -110 -33 -41 -86 -109 -117 -150 -56 -74 -68 -89 -168 -205 -27 -32 -59 -72 -70 -89 -10 -17 -22 -33 -26 -36 -3 -3 -54 -66 -113 -140 -59 -74 -128 -162 -154 -194 -26 -33 -61 -76 -78 -95 -17 -20 -43 -54 -59 -76 -16 -22 -52 -67 -80 -100 -28 -33 -72 -87 -97 -121 -69 -91 -137 -154 -165 -154 -14 0 -36 12 -51 28 -36 37 -150 176 -186 227 -16 22 -47 60 -70 86 -38 42 -90 105 -253 308 -38 47 -84 103 -104 125 -19 23 -46 57 -59 76 -14 19 -39 51 -56 70 -18 19 -45 52 -61 72 -117 153 -174 224 -266 332 -23 27 -57 71 -77 97 -41 55 -174 221 -311 388 -53 65 -104 130 -115 147 -10 16 -46 61 -79 100 -87 104 -126 152 -165 204 -19 26 -73 94 -120 151 -47 57 -98 122 -115 145 -30 40 -67 86 -155 188 -25 29 -60 72 -77 97 -18 24 -58 73 -89 109 -30 36 -73 88 -95 115 -21 28 -56 70 -76 94 -21 24 -58 71 -83 104 -74 98 -122 161 -185 242 -33 42 -80 102 -104 133 -23 31 -61 76 -82 99 -21 24 -39 47 -39 53 0 5 -25 39 -55 75 -30 35 -55 68 -55 73 0 9 -36 44 -57 56 -7 4 -18 -3 -27 -16z" fill="#e4b8bf"/>
</g>
</svg>